<svg xmlns="http://www.w3.org/2000/svg" style="display: none;">
    <!-- github -->
    <symbol id="github" viewBox="0 0 16 16">
        <path d="M8 0C3.58 0 0 3.58 0 8c0 3.54 2.29 6.53 5.47 7.59.4.07.55-.17.55-.38 0-.19-.01-.82-.01-1.49-2.01.37-2.53-.49-2.69-.94-.09-.23-.48-.94-.82-1.13-.28-.15-.68-.52-.01-.53.63-.01 1.08.58 1.23.82.72 1.21 1.87.87 2.33.66.07-.52.28-.87.51-1.07-1.78-.2-3.64-.89-3.64-3.95 0-.87.31-1.59.82-2.15-.08-.2-.36-1.02.08-2.12 0 0 .67-.21 2.2.82.64-.18 1.32-.27 2-.27.68 0 1.36.09 2 .27 1.53-1.04 2.2-.82 2.2-.82.44 1.1.16 1.92.08 2.12.51.56.82 1.27.82 2.15 0 3.07-1.87 3.75-3.65 3.95.29.25.54.73.54 1.48 0 1.07-.01 1.93-.01 2.2 0 .21.15.46.55.38A8.012 8.012 0 0 0 16 8c0-4.42-3.58-8-8-8z"/>
    </symbol>
    <!-- twitter -->
    <symbol  id="twitter">
        <path d="M5.026 15c6.038 0 9.341-5.003 9.341-9.334 0-.14 0-.282-.006-.422A6.685 6.685 0 0 0 16 3.542a6.658 6.658 0 0 1-1.889.518 3.301 3.301 0 0 0 1.447-1.817 6.533 6.533 0 0 1-2.087.793A3.286 3.286 0 0 0 7.875 6.03a9.325 9.325 0 0 1-6.767-3.429 3.289 3.289 0 0 0 1.018 4.382A3.323 3.323 0 0 1 .64 6.575v.045a3.288 3.288 0 0 0 2.632 3.218 3.203 3.203 0 0 1-.865.115 3.23 3.23 0 0 1-.614-.057 3.283 3.283 0 0 0 3.067 2.277A6.588 6.588 0 0 1 .78 13.58a6.32 6.32 0 0 1-.78-.045A9.344 9.344 0 0 0 5.026 15z"/>
    </symbol>
    <!-- instagram -->
    <symbol  id="instagram">
        <path d="M8 0C5.829 0 5.556.01 4.703.048 3.85.088 3.269.222 2.76.42a3.917 3.917 0 0 0-1.417.923A3.927 3.927 0 0 0 .42 2.76C.222 3.268.087 3.85.048 4.7.01 5.555 0 5.827 0 8.001c0 2.172.01 2.444.048 3.297.04.852.174 1.433.372 1.942.205.526.478.972.923 1.417.444.445.89.719 1.416.923.51.198 1.09.333 1.942.372C5.555 15.99 5.827 16 8 16s2.444-.01 3.298-.048c.851-.04 1.434-.174 1.943-.372a3.916 3.916 0 0 0 1.416-.923c.445-.445.718-.891.923-1.417.197-.509.332-1.09.372-1.942C15.99 10.445 16 10.173 16 8s-.01-2.445-.048-3.299c-.04-.851-.175-1.433-.372-1.941a3.926 3.926 0 0 0-.923-1.417A3.911 3.911 0 0 0 13.24.42c-.51-.198-1.092-.333-1.943-.372C10.443.01 10.172 0 7.998 0h.003zm-.717 1.442h.718c2.136 0 2.389.007 3.232.046.78.035 1.204.166 1.486.275.373.145.64.319.92.599.28.28.453.546.598.92.11.281.24.705.275 1.485.039.843.047 1.096.047 3.231s-.008 2.389-.047 3.232c-.035.78-.166 1.203-.275 1.485a2.47 2.47 0 0 1-.599.919c-.28.28-.546.453-.92.598-.28.11-.704.24-1.485.276-.843.038-1.096.047-3.232.047s-2.39-.009-3.233-.047c-.78-.036-1.203-.166-1.485-.276a2.478 2.478 0 0 1-.92-.598 2.48 2.48 0 0 1-.6-.92c-.109-.281-.24-.705-.275-1.485-.038-.843-.046-1.096-.046-3.233 0-2.136.008-2.388.046-3.231.036-.78.166-1.204.276-1.486.145-.373.319-.64.599-.92.28-.28.546-.453.92-.598.282-.11.705-.24 1.485-.276.738-.034 1.024-.044 2.515-.045v.002zm4.988 1.328a.96.96 0 1 0 0 1.92.96.96 0 0 0 0-1.92zm-4.27 1.122a4.109 4.109 0 1 0 0 8.217 4.109 4.109 0 0 0 0-8.217zm0 1.441a2.667 2.667 0 1 1 0 5.334 2.667 2.667 0 0 1 0-5.334z"/>
    </symbol>
    <!-- youtube -->
    <symbol  id="youtube">
        <path d="M8.051 1.999h.089c.822.003 4.987.033 6.11.335a2.01 2.01 0 0 1 1.415 1.42c.101.38.172.883.22 1.402l.01.104.022.26.008.104c.065.914.073 1.77.074 1.957v.075c-.001.194-.01 1.108-.082 2.06l-.008.105-.009.104c-.05.572-.124 1.14-.235 1.558a2.007 2.007 0 0 1-1.415 1.42c-1.16.312-5.569.334-6.18.335h-.142c-.309 0-1.587-.006-2.927-.052l-.17-.006-.087-.004-.171-.007-.171-.007c-1.11-.049-2.167-.128-2.654-.26a2.007 2.007 0 0 1-1.415-1.419c-.111-.417-.185-.986-.235-1.558L.09 9.82l-.008-.104A31.4 31.4 0 0 1 0 7.68v-.123c.002-.215.01-.958.064-1.778l.007-.103.003-.052.008-.104.022-.26.01-.104c.048-.519.119-1.023.22-1.402a2.007 2.007 0 0 1 1.415-1.42c.487-.13 1.544-.21 2.654-.26l.17-.007.172-.006.086-.003.171-.007A99.788 99.788 0 0 1 7.858 2h.193zM6.4 5.209v4.818l4.157-2.408L6.4 5.209z"/>
    </symbol>
    <!-- vk -->
    <symbol  id="vk">
        <path d="M7.69531,3.01953c-0.82812,-0.00781 -1.45312,0.03125 -1.97656,0.30078c-0.21484,0.10938 -0.36719,0.25 -0.48437,0.41406c-0.0625,0.08203 -0.12109,0.15625 -0.14844,0.32813c-0.01562,0.08203 -0.02734,0.21875 0.05859,0.36719c0.08594,0.15234 0.26953,0.25391 0.39453,0.27344c0.09375,0.01172 0.29297,0.09375 0.32813,0.14063c0.08203,0.11719 0.11328,0.20313 0.125,0.25c0.01172,0.04688 0.00781,0.01563 0.00781,0.01563v0.04688c0,0 0.03125,0.49219 0.01172,1c-0.01172,0.25 -0.03516,0.51172 -0.07422,0.6875c-0.03906,0.17578 -0.13672,0.21875 0.00391,0.13672c-0.09766,0.05859 -0.0625,0.08203 -0.18359,0.01953c-0.125,-0.05859 -0.44922,-0.33203 -0.875,-1.09766c-0.42578,-0.76953 -0.73437,-1.16797 -0.80469,-1.25391c-0.02734,-0.07812 -0.09375,-0.23828 -0.32031,-0.41406c-0.29297,-0.22656 -0.59375,-0.23047 -0.59375,-0.23047l-0.02734,-0.00391h-2.18359c0,0 -0.125,0.00391 -0.26953,0.03516c-0.14453,0.03125 -0.35156,0.06641 -0.54687,0.30859h-0.00391c-0.19922,0.25391 -0.16406,0.48438 -0.14844,0.625c0.01953,0.14453 0.0625,0.25781 0.0625,0.25781l0.00781,0.02344l0.01172,0.02344c0,0 1.66797,3.55859 3.66016,5.72656c1.87109,2.03906 4.03906,2 4.03906,2h1.23047l0.02734,-0.00391c0,0 0.39453,0.01953 0.72656,-0.35156c0.16797,-0.19141 0.20703,-0.37109 0.22656,-0.50391c0.02344,-0.13672 0.02344,-0.24609 0.02344,-0.24609v0.03125c0,0 0.01563,-0.25781 0.08594,-0.52734c0.03516,-0.13281 0.08594,-0.26562 0.13281,-0.33984c0.02344,-0.04297 0.02344,-0.03125 0.03125,-0.04297c0.08594,0.0625 0.22656,0.20703 0.375,0.39063c0.30469,0.36328 0.64844,0.86719 1.12891,1.21484c0.34766,0.24609 0.67578,0.35547 0.92578,0.39453c0.16797,0.02734 0.28906,0.02344 0.37109,0.01563l1.69922,-0.03125h0.01563c0,0 0.35156,-0.00781 0.70313,-0.23047c0.17188,-0.10937 0.37109,-0.30859 0.4375,-0.59375c0.07031,-0.28516 -0.00781,-0.59375 -0.17187,-0.87891c0.05469,0.09766 -0.01172,-0.03125 -0.0625,-0.13281c-0.05078,-0.10156 -0.12891,-0.23828 -0.24609,-0.41016c-0.22656,-0.33594 -0.60156,-0.80859 -1.22266,-1.41016c-0.29297,-0.28125 -0.48047,-0.4375 -0.59766,-0.54687c0.03516,-0.05078 0.03906,-0.05469 0.17188,-0.21094c0.21094,-0.24609 0.51953,-0.60938 0.91016,-1.15234c0.46875,-0.65625 0.80859,-1.19141 1.02734,-1.63672c0.21875,-0.44141 0.39453,-0.80859 0.19922,-1.26172c-0.10547,-0.24609 -0.29297,-0.33984 -0.42969,-0.39844c-0.14062,-0.05859 -0.26562,-0.08203 -0.38281,-0.10156c-0.23047,-0.03516 -0.43359,-0.03516 -0.43359,-0.03516l-1.98047,0.01563c-0.05859,-0.01172 -0.28516,-0.05469 -0.57812,0.13281c-0.28906,0.17969 -0.35547,0.37109 -0.37109,0.42969c-0.04687,0.06641 -0.375,0.53125 -0.83203,1.34375c-0.46094,0.82031 -0.77344,1.04297 -0.8125,1.0625c-0.01172,-0.01172 0.01172,-0.00781 -0.04297,-0.03906c-0.02344,-0.01953 -0.04687,-0.03516 -0.06641,-0.24609c-0.01562,-0.21094 0.00391,-0.54297 0.00391,-0.93359c0,-0.83984 0.07422,-1.27734 0.03125,-1.69531c-0.01953,-0.21094 -0.10547,-0.46875 -0.29297,-0.64062c-0.1875,-0.16797 -0.39062,-0.23047 -0.60156,-0.28516c-0.33203,-0.08203 -0.78125,-0.11719 -1.42969,-0.125zM7.6875,4.01953c0.60547,0.00781 1.03125,0.05469 1.1875,0.09375c0.13281,0.03516 0.15234,0.05078 0.14844,0.04297c0,0.00781 0,0.00391 0,0.01563c0.01563,0.16797 -0.03516,0.70703 -0.03516,1.59375c0,0.34766 -0.02734,0.68359 0,1.01953c0.02734,0.33594 0.14844,0.74609 0.50391,0.98828h0.00391c-0.04297,-0.02734 0.44922,0.33984 0.91797,0.17188c0.46875,-0.17187 0.83984,-0.60156 1.36719,-1.53516c0.46094,-0.82812 0.80078,-1.29297 0.80078,-1.29297l0.03125,-0.04687l0.02344,-0.04687c0,0 -0.00781,-0.00391 0,-0.00781l2.03125,-0.01562c0,0 0.14063,0 0.27734,0.02344c0.00391,0 0.00781,0 0.01172,0c-0.01953,0.00781 -0.00391,0.05859 -0.14062,0.33594c-0.17578,0.35547 -0.49219,0.86328 -0.94141,1.49219c-0.37109,0.51172 -0.64844,0.84375 -0.85547,1.08594c-0.20703,0.23828 -0.36328,0.35156 -0.46484,0.66406c-0.05078,0.15234 -0.03906,0.37891 0.03516,0.53125c0.07031,0.14844 0.15625,0.23047 0.24219,0.3125c0.17188,0.16406 0.375,0.32422 0.67188,0.61719c0.58203,0.5625 0.91016,0.97656 1.09375,1.25c0.09375,0.14063 0.14844,0.23828 0.18359,0.30859c0.03516,0.07031 0.01172,0.04297 0.08984,0.17578c0.06641,0.12109 0.05469,0.13672 0.05469,0.12891c-0.06641,0.03906 -0.23437,0.07422 -0.23828,0.07422l-1.69922,0.03125l-0.04687,0.01172c0,0 0.00391,0.00391 -0.10156,-0.01172c-0.10937,-0.01953 -0.28125,-0.06641 -0.5,-0.22266c-0.26953,-0.19141 -0.60937,-0.63672 -0.94531,-1.04297c-0.16406,-0.19922 -0.33203,-0.39453 -0.54297,-0.55078c-0.21094,-0.15625 -0.54297,-0.30078 -0.88281,-0.1875c-0.29297,0.09375 -0.48437,0.30859 -0.60547,0.50781c-0.12109,0.20313 -0.19141,0.41406 -0.24609,0.60547c-0.10156,0.38672 -0.11719,0.73438 -0.11719,0.73438v0.03125c0,0 0,0.02344 -0.00781,0.05859c-0.01953,0.00781 -0.04687,0.02734 -0.0625,0.03516h-1.19531c0,0 -1.65234,0.08594 -3.27344,-1.67187c-1.73437,-1.89453 -3.27734,-5.0625 -3.40625,-5.32812h2.01172c0.01953,0.00781 0.08984,0.03516 0.08203,0.03125c-0.04687,-0.03906 0.02344,0.04688 0.02344,0.04688l0.03125,0.07422l0.05469,0.0625c0,0 0.30859,0.375 0.75,1.17188c0.47266,0.85547 0.87109,1.30078 1.31641,1.51563c0.44531,0.21484 0.91406,0.0625 1.11328,-0.05078c0.37109,-0.21484 0.41406,-0.51562 0.47656,-0.79297c0.0625,-0.27734 0.08203,-0.57422 0.09375,-0.86328c0.02344,-0.55469 -0.00781,-1.02734 -0.00781,-1.0625c-0.00391,-0.01172 -0.00391,-0.14844 -0.04297,-0.29687c-0.04297,-0.15234 -0.12109,-0.35156 -0.26953,-0.5625c-0.0625,-0.08594 -0.12109,-0.04297 -0.1875,-0.10547c0.27734,-0.07812 0.57422,-0.15625 1.1875,-0.14844z"/>
    </symbol>
    <!-- mainLink -->
    <symbol  id="mainLink">
        <path d="M7.5,1c-3.58203,0 -6.5,2.91797 -6.5,6.5c0,3.58203 2.91797,6.5 6.5,6.5c3.58203,0 6.5,-2.91797 6.5,-6.5c0,-3.58203 -2.91797,-6.5 -6.5,-6.5zM7.5,2c1.30469,0 2.5,0.45313 3.44141,1.21094c-0.47656,0.58594 -1.35547,1.40234 -2.82812,1.9375c-0.80078,-1.44531 -1.46875,-2.37109 -1.93359,-2.98437c0.42188,-0.10156 0.86328,-0.16406 1.32031,-0.16406zM5.1875,2.51563c0.39063,0.50391 1.09766,1.44922 1.9375,2.92969c-2.16016,0.56641 -4.10937,0.60156 -4.92187,0.57813c0.43359,-1.5625 1.53516,-2.83984 2.98438,-3.50781zM11.66016,3.90625c0.83203,0.96484 1.33984,2.21875 1.33984,3.59375c0,0.20703 -0.01172,0.40625 -0.03516,0.60547c-0.17969,-0.02344 -0.31641,-0.04687 -0.54687,-0.06641c-0.77344,-0.05859 -1.80078,-0.05859 -2.91016,0.10547c-0.28906,-0.75391 -0.60937,-1.44922 -0.9375,-2.10156c1.54688,-0.58984 2.52344,-1.46094 3.08984,-2.13672zM7.60156,6.35156c0.31641,0.61719 0.62109,1.28125 0.90625,1.99219c-1.31641,0.39063 -2.51172,1.28125 -3.42969,2.10938c-0.49219,0.4375 -0.89453,0.85547 -1.19531,1.18359c-1.15234,-1.00781 -1.88281,-2.48437 -1.88281,-4.13672c0,-0.16406 0.01172,-0.32031 0.02344,-0.48047c0.71094,0.03125 2.98828,0.05078 5.57813,-0.66797zM10.91016,9.00781c0.76953,-0.02734 1.375,0.02344 1.85547,0.07813c-0.36328,1.22266 -1.14062,2.26172 -2.16797,2.96094c-0.16406,-1.02734 -0.42187,-2.01562 -0.73047,-2.94531c0.35938,-0.04687 0.71094,-0.07812 1.04297,-0.09375zM8.86719,9.28516c0.35547,1.02734 0.63672,2.125 0.79688,3.27344c-0.66406,0.28125 -1.39453,0.44141 -2.16406,0.44141c-1.02734,0 -1.98047,-0.28516 -2.80469,-0.76953c0.27734,-0.29687 0.62109,-0.65625 1.04688,-1.03516c0.88281,-0.79297 2.03516,-1.60156 3.125,-1.91016z"/>
    </symbol>
    <!-- facebook -->
    <symbol
    height='16px'
    viewBox="0,0,256,256"
    width='16px'
    xmlns='http://www.w3.org/2000/svg' id="facebook">
        <g stroke='none' xmlns='http://www.w3.org/2000/svg'>
        <g transform='scale(5.12,5.12)'>
        <path d='M9,4c-2.74952,0 -5,2.25048 -5,5v32c0,2.74952 2.25048,5 5,5h16.83203c0.10799,0.01785 0.21818,0.01785 0.32617,0h5.67383c0.10799,0.01785 0.21818,0.01785 0.32617,0h8.8418c2.74952,0 5,-2.25048 5,-5v-32c0,-2.74952 -2.25048,-5 -5,-5zM9,6h32c1.66848,0 3,1.33152 3,3v32c0,1.66848 -1.33152,3 -3,3h-8v-14h3.82031l1.40039,-7h-5.2207v-2c0,-0.55749 0.05305,-0.60107 0.24023,-0.72266c0.18718,-0.12159 0.76559,-0.27734 1.75977,-0.27734h3v-5.63086l-0.57031,-0.27149c0,0 -2.29704,-1.09766 -5.42969,-1.09766c-2.25,0 -4.09841,0.89645 -5.28125,2.375c-1.18284,1.47855 -1.71875,3.45833 -1.71875,5.625v2h-3v7h3v14h-16c-1.66848,0 -3,-1.33152 -3,-3v-32c0,-1.66848 1.33152,-3 3,-3zM32,15c2.07906,0 3.38736,0.45846 4,0.70117v2.29883h-1c-1.15082,0 -2.07304,0.0952 -2.84961,0.59961c-0.77656,0.50441 -1.15039,1.46188 -1.15039,2.40039v4h4.7793l-0.59961,3h-4.17969v16h-4v-16h-3v-3h3v-4c0,-1.83333 0.46409,-3.35355 1.28125,-4.375c0.81716,-1.02145 1.96875,-1.625 3.71875,-1.625z'/></g>
        </g>
    </symbol>
    <!-- website -->
    <symbol  height='16px'
    viewBox='0,0,256,256'
    width='16px'
    xmlns='http://www.w3.org/2000/svg'  id="website">
        <g stroke='none' xmlns='http://www.w3.org/2000/svg'>
        <g transform='scale(10.66667,10.66667)'>
        <path d='M18,2h-12c-1.105,0 -2,0.895 -2,2v16c0,1.105 0.895,2 2,2h12c1.105,0 2,-0.895 2,-2v-16c0,-1.105 -0.895,-2 -2,-2zM12,6c1.7,0 3,1.3 3,3c0,1.7 -1.3,3 -3,3c-1.7,0 -3,-1.3 -3,-3c0,-1.7 1.3,-3 3,-3zM17,18h-10c0,0 0,-0.585 0,-1c0,-1.571 2.512,-3 5,-3c2.488,0 5,1.429 5,3c0,0.415 0,1 0,1z'/>
    </symbol>
</svg>

